<mxfile host="app.diagrams.net" modified="2023-06-26T03:17:25.471Z" agent="Mozilla/5.0 (Windows NT 10.0; Win64; x64) AppleWebKit/537.36 (KHTML, like Gecko) Chrome/114.0.0.0 Safari/537.36" version="21.5.0" etag="zuaC06vyGYGflEkerLko" type="github">
  <diagram name="Page-1" id="3wA4_zpJXyUFdNSWu67Y">
    <mxGraphModel>
      <root>
        <mxCell id="0" />
        <mxCell id="1" parent="0" />
      </root>
    </mxGraphModel>
  </diagram>
</mxfile>
